<?xml version="1.0" standalone="no"?>
<!DOCTYPE svg PUBLIC "-//W3C//DTD SVG 20010904//EN"
 "http://www.w3.org/TR/2001/REC-SVG-20010904/DTD/svg10.dtd">
<svg version="1.0" xmlns="http://www.w3.org/2000/svg"
 width="1000.000000pt" height="1001.000000pt" viewBox="0 0 1000.000000 1001.000000"
 preserveAspectRatio="xMidYMid meet">

<g transform="translate(0.000000,1001.000000) scale(0.100000,-0.100000)"
fill="#000000" stroke="none">
<path d="M4625 8485 c-1026 -113 -1941 -665 -2522 -1521 -274 -404 -465 -879
-548 -1361 -61 -354 -61 -832 0 -1186 159 -920 690 -1752 1455 -2279 421 -291
902 -487 1397 -573 354 -61 832 -61 1186 0 1453 250 2602 1399 2852 2852 61
354 61 832 0 1186 -250 1453 -1399 2602 -2852 2852 -264 45 -703 59 -968 30z
m815 -2189 c524 -56 983 -200 1370 -432 301 -180 580 -431 748 -672 182 -261
296 -649 296 -1002 0 -134 -3 -152 -32 -245 -26 -82 -37 -106 -67 -131 -91
-80 -349 -129 -545 -104 -261 32 -524 127 -732 262 -177 115 -203 155 -196
293 7 110 27 171 121 368 l71 149 -27 52 c-15 29 -57 89 -92 133 -224 280
-613 453 -1143 509 -208 22 -446 14 -608 -20 -347 -73 -650 -227 -876 -444
-97 -93 -198 -210 -198 -229 0 -6 31 -75 69 -154 103 -215 131 -312 131 -459
0 -63 -2 -68 -37 -102 -149 -143 -406 -268 -689 -334 -103 -24 -140 -28 -269
-28 -222 0 -429 49 -499 118 -38 38 -85 189 -93 299 -14 182 42 506 124 727
98 263 255 485 500 705 486 440 1107 694 1843 754 159 13 655 5 830 -13z"/>
<path d="M2498 3 c1376 -2 3628 -2 5005 0 1376 1 250 2 -2503 2 -2753 0 -3879
-1 -2502 -2z"/>
</g>
</svg>
