<?xml version="1.0" standalone="no"?>
<!DOCTYPE svg PUBLIC "-//W3C//DTD SVG 20010904//EN"
 "http://www.w3.org/TR/2001/REC-SVG-20010904/DTD/svg10.dtd">
<svg version="1.0" xmlns="http://www.w3.org/2000/svg"
 width="1280.000000pt" height="720.000000pt" viewBox="0 0 1280.000000 720.000000"
 preserveAspectRatio="xMidYMid meet">

<g transform="translate(0.000000,720.000000) scale(0.100000,-0.100000)"
fill="#000000" stroke="none">
<path d="M6255 5994 c-282 -29 -488 -73 -677 -143 -128 -48 -268 -112 -263
-121 2 -3 -4 -6 -13 -6 -26 0 -232 -126 -225 -137 3 -6 2 -7 -4 -4 -28 18
-316 -226 -472 -399 -75 -84 -230 -294 -216 -294 4 0 -1 -7 -9 -16 -24 -23
-91 -141 -142 -250 -173 -366 -257 -811 -225 -1194 27 -314 99 -589 225 -854
53 -112 118 -227 144 -252 9 -10 16 -20 14 -23 -5 -9 117 -179 161 -225 20
-21 37 -42 37 -44 0 -14 231 -241 253 -248 9 -3 17 -10 17 -15 0 -15 201 -159
213 -152 5 3 7 2 4 -4 -8 -12 165 -116 298 -179 329 -154 656 -227 1020 -228
372 0 692 70 1025 226 137 64 311 168 303 181 -3 6 -1 7 4 4 12 -7 213 137
213 152 0 5 8 12 18 15 21 7 252 234 252 248 0 2 17 23 38 44 41 45 164 215
162 227 0 4 6 15 15 23 23 23 90 142 141 250 101 213 177 471 211 710 20 148
23 451 4 594 -24 187 -69 377 -131 547 -59 160 -182 404 -228 449 -9 10 -15
19 -12 21 7 4 -119 181 -162 227 -21 21 -38 42 -38 44 0 14 -231 241 -252 248
-10 3 -18 10 -18 15 0 15 -202 159 -214 152 -6 -3 -8 -3 -4 2 14 15 -215 151
-234 139 -6 -4 -8 -3 -5 3 6 9 -142 82 -151 75 -3 -2 -8 1 -11 6 -11 17 -201
81 -345 117 -78 19 -195 42 -261 50 -120 16 -385 27 -460 19z m388 -672 c94
-37 151 -69 221 -127 30 -24 57 -42 60 -39 3 2 4 1 2 -2 -2 -3 18 -35 45 -71
65 -85 106 -168 130 -261 18 -70 19 -115 19 -702 0 -587 -1 -632 -19 -702 -24
-93 -65 -176 -130 -261 -27 -36 -48 -67 -48 -69 1 -2 0 -2 -1 -1 -2 1 -31 -20
-64 -47 -69 -55 -145 -97 -238 -131 -58 -21 -82 -24 -220 -24 -138 0 -162 3
-220 24 -246 89 -420 273 -480 507 -19 73 -20 113 -20 704 0 587 1 632 19 702
24 94 65 176 131 263 59 78 70 88 166 154 70 47 167 90 249 110 22 6 103 9
180 7 129 -3 146 -6 218 -34z m-1275 -1582 c51 -31 68 -70 76 -168 10 -118 29
-212 61 -302 33 -91 95 -201 108 -193 6 3 7 2 4 -4 -9 -15 34 -71 120 -153 88
-86 139 -123 233 -170 313 -158 681 -134 970 63 104 71 279 267 292 327 2 8
10 22 19 32 20 23 75 185 88 259 5 30 13 94 17 142 11 135 56 187 164 187 65
0 110 -24 140 -72 41 -67 20 -309 -41 -493 -42 -125 -130 -289 -204 -382 -35
-43 -60 -82 -57 -88 3 -5 2 -7 -3 -3 -4 4 -44 -27 -89 -68 -176 -164 -412
-282 -633 -316 l-73 -12 0 -190 c0 -213 -6 -236 -72 -276 -45 -27 -131 -27
-176 0 -66 40 -72 63 -72 276 l0 190 -73 12 c-221 34 -457 152 -633 316 -45
41 -85 72 -89 68 -5 -4 -6 -2 -3 3 3 6 -22 45 -57 88 -74 92 -172 278 -208
393 -58 185 -76 418 -37 482 30 48 75 72 140 72 37 0 66 -6 88 -20z"/>
<path d="M6350 5034 c-48 -9 -140 -46 -134 -55 3 -5 -2 -6 -10 -3 -11 4 -37
-15 -79 -57 -47 -48 -71 -82 -93 -134 l-29 -70 0 -595 0 -595 29 -70 c22 -52
46 -86 93 -134 42 -42 68 -61 79 -57 8 3 13 2 10 -3 -11 -17 116 -55 184 -55
68 0 195 38 184 55 -3 5 2 6 10 3 11 -4 37 15 79 57 47 48 71 82 93 134 l29
70 0 595 0 595 -29 70 c-22 52 -46 86 -93 134 -42 42 -68 61 -79 57 -8 -3 -13
-2 -10 3 15 23 -170 66 -234 55z"/>
</g>
</svg>
