<?xml version="1.0" standalone="no"?>
<!DOCTYPE svg PUBLIC "-//W3C//DTD SVG 20010904//EN"
 "http://www.w3.org/TR/2001/REC-SVG-20010904/DTD/svg10.dtd">
<svg version="1.0" xmlns="http://www.w3.org/2000/svg"
 width="512.000000pt" height="512.000000pt" viewBox="0 0 512.000000 512.000000"
 preserveAspectRatio="xMidYMid meet">

<g transform="translate(0.000000,512.000000) scale(0.100000,-0.100000)"
fill="#000000" stroke="none">
<path d="M1045 3837 c-172 -57 -283 -197 -293 -368 -20 -344 360 -560 643
-364 63 43 108 97 143 173 24 51 27 69 27 163 0 101 -1 108 -37 181 -45 91
-104 148 -196 191 -57 27 -81 32 -157 34 -55 2 -105 -2 -130 -10z m205 -206
c56 -40 62 -112 12 -151 -22 -18 -24 -23 -12 -30 8 -6 18 -10 22 -10 11 0 38
-56 38 -79 0 -76 -91 -131 -192 -115 -46 8 -108 60 -108 93 0 31 64 30 90 -1
12 -15 28 -22 53 -22 42 0 67 18 67 50 0 34 -26 54 -71 54 -38 0 -39 1 -39 35
0 32 2 35 31 35 17 0 39 5 50 10 50 27 -4 105 -57 82 -13 -7 -27 -19 -30 -27
-9 -21 -84 -21 -84 1 0 20 19 56 39 71 45 36 144 37 191 4z"/>
<path d="M4876 713 c56 -55 133 -142 173 -193 l71 -92 0 84 0 84 -122 80 c-68
45 -145 93 -173 109 -48 27 -45 23 51 -72z"/>
</g>
</svg>
