<?xml version="1.0" standalone="no"?>
<!DOCTYPE svg PUBLIC "-//W3C//DTD SVG 20010904//EN"
 "http://www.w3.org/TR/2001/REC-SVG-20010904/DTD/svg10.dtd">
<svg version="1.0" xmlns="http://www.w3.org/2000/svg"
 width="416.000000pt" height="416.000000pt" viewBox="0 0 416.000000 416.000000"
 preserveAspectRatio="xMidYMid meet">

<g transform="translate(0.000000,416.000000) scale(0.100000,-0.100000)"
fill="#000000" stroke="none">
<path d="M1840 3855 c-592 -81 -1108 -454 -1369 -989 -393 -807 -130 -1777
617 -2277 522 -349 1201 -397 1767 -124 561 270 932 795 1006 1420 18 149 6
401 -25 551 -176 843 -907 1438 -1761 1433 -77 -1 -183 -7 -235 -14z m628
-1164 c31 -14 70 -43 97 -73 76 -84 76 -89 73 -559 -3 -403 -4 -415 -25 -454
-30 -55 -88 -110 -148 -137 l-50 -23 -653 -3 c-567 -2 -662 -1 -715 13 -93 24
-149 71 -193 160 l-24 50 0 415 c0 414 0 415 24 465 40 86 116 146 209 165 23
4 337 7 697 7 l655 -2 53 -24z m860 -915 l-3 -303 -285 197 -285 197 0 213 0
213 285 197 285 196 3 -303 c1 -167 1 -440 0 -607z"/>
</g>
</svg>
